<svg width="132" height="23" viewBox="0 0 132 23" fill="none" xmlns="http://www.w3.org/2000/svg">
<path d="M0.368 23V0.279999H10C11.0453 0.279999 12.0053 0.493332 12.88 0.919998C13.7547 1.34667 14.512 1.92267 15.152 2.648C15.8133 3.37333 16.3253 4.184 16.688 5.08C17.0507 5.976 17.232 6.89333 17.232 7.832C17.232 9.112 16.9333 10.328 16.336 11.48C15.7387 12.632 14.9173 13.5707 13.872 14.296C12.8267 15.0213 11.5893 15.384 10.16 15.384H4.784V23H0.368ZM4.784 11.512H9.904C10.4373 11.512 10.9173 11.3627 11.344 11.064C11.7707 10.7653 12.112 10.3387 12.368 9.784C12.624 9.208 12.752 8.55733 12.752 7.832C12.752 7.04267 12.6027 6.37067 12.304 5.816C12.0267 5.26133 11.6533 4.84533 11.184 4.568C10.736 4.29067 10.2453 4.152 9.712 4.152H4.784V11.512ZM20.3055 23V0.279999H24.7215V19.128H36.3055V23H20.3055ZM45.169 0.279999H49.649L58.001 23H53.457L51.345 17.336H43.409L41.329 23H36.785L45.169 0.279999ZM50.545 14.232L47.409 4.856L44.145 14.232H50.545ZM64.909 8.408V23H60.493V0.279999H64.013L75.757 15.256V0.311998H80.173V23H76.493L64.909 8.408ZM84.8993 23V0.279999H89.3153V23H84.8993ZM94.0555 23V0.279999H109.319V4.152H98.4715V10.008H107.496V13.592H98.4715V23H94.0555ZM114.991 0.279999L120.591 10.968L126.287 0.279999H131.055L122.799 15.064V23H118.415V15L110.191 0.279999H114.991Z" fill="#8A9A5B"/>
</svg>
