<svg width="60" height="60" viewBox="0 0 60 60" fill="none" xmlns="http://www.w3.org/2000/svg">
<path d="M10 47.5V42.5H15V25C15 21.5417 16.0417 18.4792 18.125 15.8125C20.2083 13.1042 22.9167 11.3333 26.25 10.5V8.75C26.25 7.70833 26.6042 6.83333 27.3125 6.125C28.0625 5.375 28.9583 5 30 5C31.0417 5 31.9167 5.375 32.625 6.125C33.375 6.83333 33.75 7.70833 33.75 8.75V10.5C37.0833 11.3333 39.7917 13.1042 41.875 15.8125C43.9583 18.4792 45 21.5417 45 25V42.5H50V47.5H10ZM30 55C28.625 55 27.4375 54.5208 26.4375 53.5625C25.4792 52.5625 25 51.375 25 50H35C35 51.375 34.5 52.5625 33.5 53.5625C32.5417 54.5208 31.375 55 30 55ZM20 42.5H40V25C40 22.25 39.0208 19.8958 37.0625 17.9375C35.1042 15.9792 32.75 15 30 15C27.25 15 24.8958 15.9792 22.9375 17.9375C20.9792 19.8958 20 22.25 20 25V42.5Z" fill="#C76A4A"/>
</svg>
